<?xml version="1.0" standalone="no"?>
<!DOCTYPE svg PUBLIC "-//W3C//DTD SVG 20010904//EN"
 "http://www.w3.org/TR/2001/REC-SVG-20010904/DTD/svg10.dtd">
<svg version="1.0" xmlns="http://www.w3.org/2000/svg"
 width="2216.000000pt" height="2216.000000pt" viewBox="0 0 2216.000000 2216.000000"
 preserveAspectRatio="xMidYMid meet">
<metadata>
Created by potrace 1.14, written by Peter Selinger 2001-2017
</metadata>
<g transform="translate(0.000000,2216.000000) scale(0.100000,-0.100000)"
fill="#000000" stroke="none">
<path d="M1252 22138 c-140 -15 -252 -43 -377 -93 -180 -73 -311 -160 -461
-310 -226 -225 -356 -493 -399 -820 -8 -63 -8 -19626 0 -19680 18 -121 29
-169 56 -260 64 -209 209 -445 354 -580 214 -199 448 -319 720 -371 85 -16
677 -17 9904 -19 5397 -1 9841 2 9875 7 119 16 134 19 256 55 516 153 913 639
965 1183 12 124 7 19593 -5 19682 -13 97 -54 265 -76 317 -103 231 -177 345
-324 491 -202 203 -436 326 -730 385 -8 1 -40 6 -70 11 -67 10 -19599 12
-19688 2z"/>
</g>
</svg>
